<?xml version="1.0" standalone="no"?>
<!DOCTYPE svg PUBLIC "-//W3C//DTD SVG 20010904//EN"
 "http://www.w3.org/TR/2001/REC-SVG-20010904/DTD/svg10.dtd">
<svg version="1.0" xmlns="http://www.w3.org/2000/svg"
 width="512.000000pt" height="512.000000pt" viewBox="0 0 512.000000 512.000000"
 preserveAspectRatio="xMidYMid meet">

<g transform="translate(0.000000,512.000000) scale(0.100000,-0.100000)"
strokeWidth=""
>
<path d="M335 4238 c-83 -30 -163 -115 -185 -198 -7 -25 -9 -511 -8 -1462 l3
-1423 27 -51 c31 -59 84 -108 147 -138 l46 -21 2195 0 2195 0 46 21 c63 30
116 79 147 138 l27 51 0 1445 0 1445 -23 42 c-33 63 -74 106 -129 133 l-48 25
-2205 2 c-1536 1 -2214 -2 -2235 -9z m4354 -125 c0 -12 -2002 -1515 -2050
-1540 -49 -26 -95 -29 -142 -10 -18 8 -471 345 -1008 749 -537 404 -995 748
-1018 764 -22 16 -41 32 -41 37 0 4 958 7 2130 7 1172 0 2130 -3 2129 -7z
m-3519 -734 c476 -358 869 -654 873 -658 4 -5 -389 -345 -875 -756 l-883 -748
-3 1384 c-1 761 0 1394 3 1407 3 12 9 22 13 22 4 0 396 -293 872 -651z m3665
629 c3 -13 4 -646 3 -1407 l-3 -1384 -883 748 c-485 412 -881 750 -879 752 17
16 1744 1313 1749 1313 4 0 10 -10 13 -22z m-2547 -1472 c132 -100 177 -120
267 -120 96 -1 141 18 281 123 l118 89 56 -46 c419 -351 1740 -1476 1740
-1482 0 -4 -14 -10 -31 -14 -41 -8 -4277 -8 -4318 0 -18 4 -30 11 -29 16 7 21
1794 1526 1803 1519 6 -4 56 -43 113 -85z"/>
</g>
</svg>
