<?xml version="1.0" standalone="no"?>
<!DOCTYPE svg PUBLIC "-//W3C//DTD SVG 20010904//EN"
 "http://www.w3.org/TR/2001/REC-SVG-20010904/DTD/svg10.dtd">
<svg version="1.0" xmlns="http://www.w3.org/2000/svg"
 width="512.000000pt" height="512.000000pt" viewBox="0 0 512.000000 512.000000"
 preserveAspectRatio="xMidYMid meet">

<g transform="translate(0.000000,512.000000) scale(0.100000,-0.100000)"
fill="#000000" stroke="none">
<path d="M376 5100 c-99 -39 -158 -126 -159 -233 0 -35 7 -78 15 -98 21 -48
81 -114 118 -129 l29 -12 3 -1062 c3 -1052 3 -1061 24 -1106 27 -58 77 -108
134 -134 37 -16 72 -21 203 -24 l157 -4 0 -433 c0 -401 1 -437 20 -511 82
-321 346 -550 668 -580 l72 -7 0 -339 c0 -360 4 -393 48 -417 14 -8 264 -11
812 -11 l792 0 29 29 29 29 0 355 c0 393 -5 367 67 367 55 0 223 37 320 71
414 144 742 469 891 879 55 151 75 259 87 463 l7 107 37 0 c102 0 135 41 120
150 -22 158 -135 291 -295 347 -45 16 -143 18 -1196 20 l-1148 4 0 903 0 904
24 6 c13 3 44 25 68 49 127 123 92 333 -67 412 -39 19 -68 20 -950 22 -878 2
-912 2 -959 -17z m1855 -179 c37 -38 38 -79 3 -115 l-27 -26 -882 0 c-864 0
-883 0 -907 20 -14 11 -28 31 -30 44 -7 34 17 85 44 96 13 5 390 9 896 9 l874
1 29 -29z m-141 -1381 l0 -1070 -740 2 -740 3 -27 28 -28 27 -3 1028 c-1 564
0 1032 3 1039 3 10 160 13 770 13 l765 0 0 -1070z m2483 -912 c21 -10 50 -27
65 -39 27 -21 82 -95 82 -111 0 -4 -552 -7 -1227 -6 l-1228 3 -3 74 c-2 41 -1
80 2 88 5 11 186 13 1138 11 1047 -3 1136 -4 1171 -20z m-3 -350 c-1 -82 -23
-275 -41 -352 -93 -394 -368 -722 -739 -881 -103 -44 -196 -71 -315 -90 -75
-12 -244 -15 -986 -15 -863 0 -899 1 -974 20 -162 41 -305 155 -377 300 -67
133 -68 145 -68 617 l0 423 1750 0 1750 0 0 -22z m-1370 -1808 l0 -300 -682 2
-683 3 -3 285 c-1 157 0 290 3 297 3 10 146 13 685 13 l680 0 0 -300z"/>
</g>
</svg>
