<?xml version="1.0" standalone="no"?>
<!DOCTYPE svg PUBLIC "-//W3C//DTD SVG 20010904//EN"
 "http://www.w3.org/TR/2001/REC-SVG-20010904/DTD/svg10.dtd">
<svg version="1.0" xmlns="http://www.w3.org/2000/svg"
 width="512.000000pt" height="512.000000pt" viewBox="0 0 512.000000 512.000000"
 preserveAspectRatio="xMidYMid meet">

<g transform="translate(0.000000,512.000000) scale(0.100000,-0.100000)"
>
<path d="M2125 4943 c-242 -19 -422 -45 -586 -83 -475 -110 -803 -308 -889
-537 l-21 -56 1 -1548 c0 -1355 2 -1553 16 -1590 68 -194 305 -367 663 -483
595 -194 1398 -208 2039 -38 l72 20 0 -230 c0 -130 4 -237 10 -248 17 -32 67
-40 239 -40 294 0 547 43 746 126 104 44 234 129 252 164 10 20 12 337 10
1510 l-2 1485 -26 55 c-60 128 -192 200 -466 256 l-23 4 0 258 c0 343 -12 387
-137 522 -214 232 -722 404 -1323 450 -123 9 -478 11 -575 3z m646 -148 c528
-50 949 -193 1144 -389 121 -121 134 -237 40 -365 -164 -222 -643 -392 -1250
-442 -175 -14 -637 -6 -790 15 -513 68 -876 203 -1053 390 -66 70 -92 124 -92
196 0 70 25 125 87 191 200 215 647 363 1238 412 122 10 538 5 676 -8z m-1976
-925 c30 -34 157 -116 250 -162 378 -189 932 -282 1532 -257 257 11 449 35
668 85 312 71 826 72 1051 3 135 -42 204 -88 229 -153 35 -92 -2 -154 -129
-216 -153 -74 -356 -108 -705 -117 -209 -5 -236 -8 -253 -25 -17 -17 -18 -62
-18 -1137 l0 -1119 -81 -22 c-355 -95 -618 -125 -1029 -117 -295 6 -475 25
-701 73 -144 30 -352 96 -460 146 -175 81 -316 196 -362 295 l-22 48 -3 1348
c-1 750 1 1347 6 1347 5 0 17 -9 27 -20z m3225 -62 l0 -83 -111 3 c-61 2 -109
5 -108 7 2 1 38 26 79 53 41 28 86 62 99 76 14 14 28 26 33 26 4 0 8 -37 8
-82z m520 -2037 l0 -1309 -48 -31 c-176 -113 -408 -169 -734 -178 l-198 -6 0
1332 0 1331 93 0 c321 0 622 50 792 130 44 21 83 39 88 39 4 1 7 -588 7 -1308z"/>
<path d="M2217 4464 c-121 -29 -229 -100 -267 -175 -26 -50 -26 -128 -1 -178
61 -119 234 -195 446 -194 294 0 503 153 455 333 -14 53 -82 127 -149 163
-114 63 -339 86 -484 51z m284 -128 c122 -22 219 -83 219 -139 0 -36 -74 -94
-147 -117 -142 -44 -293 -36 -411 21 -138 67 -122 157 38 214 94 34 192 40
301 21z"/>
</g>
</svg>
