<svg width="" height="" viewBox="0 0 24 24" fill="#fff" xmlns="http://www.w3.org/2000/svg" stroke="#090909" is-tone="false" hover-color="" class="">
  <path d="M18 8.6665C18 7.0752 17.3679 5.54908 16.2426 4.42386C15.1174 3.29864 13.5913 2.6665 12 2.6665C10.4087 2.6665 8.88258 3.29864 7.75736 4.42386C6.63214 5.54908 6 7.0752 6 8.6665C6 15.6665 3 17.6665 3 17.6665H21C21 17.6665 18 15.6665 18 8.6665Z" stroke-linecap="round" stroke-linejoin="round">
  </path>
  <path d="M14.6666 18.3335C14.3956 18.9418 14.0066 19.4467 13.5386 19.7977C13.0706 20.1487 12.54 20.3335 11.9999 20.3335C11.4598 20.3335 10.9292 20.1487 10.4612 19.7977C9.99322 19.4467 9.60425 18.9418 9.33325 18.3335" stroke-linecap="round" stroke-linejoin="round">
  </path>
</svg>