<svg
    width=""
    height=""
    viewBox="0 0 24 24"
    fill=""
    xmlns="http://www.w3.org/2000/svg"
    stroke=""
  >
    <path
      d="M18.6668 6H5.33335C4.97976 6 4.64062 6.13962 4.39046 6.38807C4.14046 6.63666 4 6.97363 4 7.32517V17.6748C4 18.0262 4.14048 18.3633 4.39046 18.6118C4.64058 18.8604 4.97976 19 5.33335 19C5.67179 18.9981 5.99691 18.8682 6.24264 18.6369L8.05861 16.9353H8.05873C8.1079 16.8895 8.17266 16.864 8.24004 16.8638H18.6667C19.0202 16.8638 19.3594 16.7241 19.6095 16.4757C19.8595 16.2272 20 15.8901 20 15.5386V7.32253C19.9993 6.97159 19.8585 6.63522 19.6086 6.38721C19.3586 6.13934 19.0199 6.00008 18.6667 6.00008L18.6668 6ZM18.9335 15.5412C18.9335 15.6115 18.9054 15.679 18.8554 15.7286C18.8054 15.7783 18.7375 15.8063 18.6668 15.8063H8.24537C7.90538 15.8061 7.57821 15.935 7.33071 16.1666L5.51736 17.8682C5.43986 17.9416 5.32581 17.9618 5.2276 17.9197C5.12938 17.8775 5.06593 17.7811 5.06665 17.6747V7.32509C5.06665 7.17873 5.18605 7.06005 5.33332 7.06005H18.6668C18.7375 7.06005 18.8053 7.08798 18.8553 7.13767C18.9053 7.18737 18.9334 7.25481 18.9334 7.32509L18.9335 15.5412Z"
    />
    <path
      d="M13.5238 11H10.4762C10.306 11 10.1488 11.0953 10.0638 11.25C9.97874 11.4047 9.97874 11.5953 10.0638 11.75C10.1488 11.9047 10.306 12 10.4762 12H13.5238C13.694 12 13.8512 11.9047 13.9362 11.75C14.0213 11.5953 14.0213 11.4047 13.9362 11.25C13.8512 11.0953 13.694 11 13.5238 11Z"
    />

  </svg>