  <svg
    width=""
    height=""
    viewBox="0 0 24 24"
    fill=""
    xmlns="http://www.w3.org/2000/svg"
    stroke=""
  >
    <path
      d="M18.9332 6.12952H16.7999C16.517 6.12952 16.2457 6.2419 16.0456 6.44189C15.8456 6.64201 15.7332 6.91332 15.7332 7.19617V11.9961C15.7332 13.3299 15.0216 14.5624 13.8666 15.2293C12.7115 15.8961 11.2884 15.8961 10.1333 15.2293C8.97817 14.5624 8.26662 13.3299 8.26662 11.9961V7.19617C8.26662 6.91332 8.15424 6.642 7.95424 6.44189C7.75412 6.2419 7.48281 6.12952 7.19996 6.12952H5.06665C4.7838 6.12952 4.51248 6.2419 4.31238 6.44189C4.11238 6.64201 4 6.91332 4 7.19617V11.9961C4 14.1179 4.84284 16.1527 6.34307 17.653C7.8434 19.1533 9.87827 19.9961 12 19.9961C14.1217 19.9961 16.1566 19.1533 17.6569 17.653C19.1572 16.1527 20 14.1178 20 11.9961V7.19617C20 6.91332 19.8876 6.642 19.6876 6.44189C19.4875 6.2419 19.2162 6.12952 18.9333 6.12952H18.9332ZM18.9332 7.19617V9.32948H16.7999V7.19617H18.9332ZM7.19996 7.19617V9.32948H5.06665V7.19617H7.19996ZM11.9999 18.9294C10.1611 18.9294 8.39766 18.1989 7.09726 16.8987C5.79704 15.5985 5.06656 13.8349 5.06656 11.996V10.396H7.19987V11.996C7.19987 13.7109 8.11476 15.2956 9.59985 16.1529C11.0849 17.0104 12.9147 17.0104 14.3998 16.1529C15.8849 15.2956 16.7998 13.7109 16.7998 11.996V10.396H18.9331V11.996C18.9331 13.8348 18.2026 15.5983 16.9024 16.8987C15.6022 18.1989 13.8386 18.9294 11.9997 18.9294H11.9999Z"
    />
    <path
      d="M9.70128 5.97463C10.3223 5.3869 11.1448 5.05929 11.9999 5.05929C12.8551 5.05929 13.6775 5.3869 14.2986 5.97463C14.3966 6.07189 14.5285 6.12725 14.6666 6.12927C14.809 6.12868 14.9451 6.0713 15.0449 5.96975C15.1447 5.8682 15.1997 5.73106 15.1978 5.58868C15.1959 5.44642 15.137 5.3107 15.0345 5.2119C14.2158 4.43395 13.1294 4 11.9999 4C10.8705 4 9.78415 4.43392 8.96535 5.2119C8.8644 5.31214 8.80762 5.44845 8.80762 5.5906C8.80762 5.73286 8.8644 5.86917 8.96535 5.96929C9.06381 6.06453 9.19523 6.11822 9.33225 6.11929C9.46927 6.12024 9.60141 6.06846 9.70128 5.97465L9.70128 5.97463Z"
    />
    <path
      d="M10.0322 7.4468C9.9313 7.54692 9.87451 7.68322 9.87451 7.82537C9.87451 7.96763 9.9313 8.10393 10.0322 8.20406C10.1321 8.30346 10.2674 8.35917 10.4082 8.35917C10.5491 8.35917 10.6843 8.30346 10.7843 8.20406C11.1176 7.89025 11.5583 7.71538 12.0162 7.71538C12.4741 7.71538 12.9147 7.89026 13.2482 8.20406C13.3471 8.29941 13.4789 8.35287 13.6161 8.35346C13.7585 8.35287 13.8947 8.29537 13.9945 8.19394C14.0942 8.09239 14.1492 7.95513 14.1473 7.81287C14.1454 7.67049 14.0866 7.5349 13.9842 7.4361C13.4502 6.92993 12.7419 6.6486 12.006 6.65065C11.2703 6.65255 10.5634 6.93767 10.0322 7.44682V7.4468Z"
    />
  </svg>