<svg version="1.0" xmlns="http://www.w3.org/2000/svg"
 width="" height="" viewBox="0 0 790.000000 899.000000"
 preserveAspectRatio="xMidYMid meet">

  <g transform="translate(0.000000,899.000000) scale(0.100000,-0.100000)"
  fill="" stroke="none">
  <path d="M876 8967 c-45 -45 -127 -442 -146 -704 -16 -226 8 -402 74 -537 l34
  -69 -38 -71 c-103 -191 -110 -386 -18 -483 l22 -23 -46 -93 c-81 -161 -97
  -271 -54 -363 13 -28 29 -55 35 -59 8 -4 -11 -31 -52 -74 -447 -474 -687
  -1246 -687 -2209 0 -328 25 -637 85 -1052 45 -308 54 -408 65 -684 9 -250 22
  -334 72 -474 74 -211 194 -397 377 -587 42 -44 87 -98 99 -119 38 -64 90 -122
  176 -194 571 -483 1764 -955 2786 -1101 377 -55 830 -75 1155 -52 843 60 1584
  318 2165 755 116 88 318 281 418 401 421 503 586 1174 451 1825 -73 352 -224
  641 -384 731 -101 57 -134 115 -143 246 l-5 82 117 260 c64 142 116 267 116
  278 0 31 -29 63 -57 63 -23 0 -25 3 -19 33 34 180 39 504 12 712 -39 291 -115
  567 -232 842 -91 214 -149 314 -370 648 -294 444 -383 517 -934 770 -530 244
  -841 338 -1325 402 -182 23 -656 24 -845 0 -180 -23 -397 -62 -551 -101 l-126
  -32 -38 45 c-57 64 -110 85 -220 84 -49 -1 -112 -6 -140 -13 -44 -10 -51 -9
  -60 6 -26 46 -81 94 -123 111 -62 24 -211 22 -302 -4 l-65 -18 -55 56 c-103
  104 -252 124 -476 63 -17 -4 -29 5 -59 45 -46 64 -107 101 -164 101 -54 0
  -108 28 -155 80 -61 68 -152 214 -221 355 -36 73 -72 136 -81 139 -28 11 -44
  6 -68 -17z m3794 -1041 c484 -69 862 -197 1454 -493 235 -118 341 -196 458
  -340 58 -70 168 -230 168 -243 0 -4 -8 -10 -17 -13 -10 -3 -90 -31 -177 -61
  -620 -220 -1295 -383 -1856 -450 -268 -32 -400 -39 -810 -40 -396 -2 -431 -3
  -515 -23 -249 -59 -419 -166 -534 -338 -149 -224 -189 -560 -110 -920 26 -114
  58 -299 54 -303 -2 -2 -106 17 -232 43 -125 27 -239 48 -253 48 -15 0 -87 -36
  -165 -83 l-140 -82 -55 11 c-104 20 -167 23 -239 11 -245 -41 -436 -267 -542
  -640 -21 -75 -24 -105 -24 -255 1 -159 3 -175 29 -255 35 -106 70 -175 134
  -265 90 -127 225 -249 379 -343 155 -94 172 -107 173 -127 0 -39 -100 -317
  -154 -428 -180 -368 -452 -616 -791 -718 -55 -17 -121 -38 -147 -49 l-47 -18
  -68 80 c-158 185 -266 372 -318 553 -23 77 -28 120 -35 300 -14 332 -23 423
  -75 790 -104 726 -107 1321 -9 1855 82 446 245 846 460 1129 l34 44 0 -57 c0
  -94 37 -158 115 -199 61 -32 204 -35 318 -8 592 141 1527 872 1875 1466 45 77
  90 188 101 250 6 38 9 41 61 58 131 42 469 105 681 127 138 14 686 5 819 -14z
  m2222 -1284 c362 -562 532 -1232 463 -1823 -17 -144 -33 -229 -48 -247 -13
  -16 -272 -172 -286 -172 -6 0 -11 12 -11 26 0 38 -47 171 -82 232 -49 86 -131
  167 -206 204 -61 30 -74 33 -162 33 -88 0 -101 -3 -162 -33 -116 -57 -210
  -177 -263 -337 -15 -44 -28 -81 -29 -83 -2 -1 -23 9 -47 23 -149 83 -382 68
  -615 -39 -40 -19 -75 -31 -78 -28 -3 3 -6 14 -6 25 0 10 -13 59 -30 108 -53
  160 -146 276 -268 336 -50 25 -68 28 -152 28 -87 0 -101 -3 -162 -33 -85 -42
  -174 -135 -222 -234 -34 -68 -76 -208 -76 -250 0 -10 -3 -18 -7 -18 -20 0
  -1499 304 -1505 310 -5 3 -19 67 -33 140 -13 74 -34 179 -45 233 -41 195 -43
  419 -5 583 49 213 198 383 405 463 151 59 210 64 700 66 344 1 480 5 600 19
  494 54 952 145 1460 291 231 67 673 211 760 249 19 8 40 15 45 16 6 0 35 -40
  67 -88z m-4317 -2038 c209 -42 244 -53 245 -76 0 -5 -78 -8 -174 -8 -216 0
  -203 10 -235 -187 -13 -76 -25 -149 -28 -162 -6 -23 -6 -23 -18 5 -6 16 -36
  92 -64 169 -53 140 -89 197 -134 211 -15 5 -3 16 60 54 47 30 86 47 98 45 11
  -3 124 -25 250 -51z m2216 16 c69 -37 63 -229 -7 -246 -64 -16 -106 103 -69
  194 13 31 39 62 53 62 2 0 12 -5 23 -10z m1650 -30 c33 -61 17 -190 -26 -206
  -86 -33 -131 147 -57 229 25 28 62 18 83 -23z m-4461 -108 c41 -18 102 -50
  135 -72 33 -22 66 -40 73 -40 8 0 12 -21 12 -69 0 -63 7 -89 75 -262 41 -106
  78 -196 82 -200 20 -19 60 -20 84 -1 22 18 28 44 69 284 l46 263 185 3 c171 2
  188 4 204 22 13 14 18 34 17 65 -2 31 2 45 11 45 10 0 1375 -277 1453 -295 18
  -4 22 -15 27 -66 21 -191 130 -381 269 -462 193 -115 419 -39 551 184 47 80
  85 198 94 291 l6 71 91 43 c279 131 479 133 599 6 16 -16 25 -32 20 -35 -4 -3
  -150 -41 -323 -86 -173 -45 -325 -86 -338 -91 -49 -21 -48 -101 2 -120 19 -7
  132 19 522 121 550 143 528 140 594 76 107 -105 -12 -338 -356 -696 -69 -72
  -94 -105 -94 -124 0 -51 55 -79 98 -51 34 22 172 164 264 272 65 76 73 82 108
  82 105 0 242 74 318 172 74 97 142 279 142 382 l0 41 152 92 c83 51 153 91
  155 89 5 -4 -117 -270 -127 -276 -27 -18 -14 -243 21 -335 25 -67 97 -149 158
  -180 150 -76 291 -367 356 -735 23 -130 31 -399 16 -541 -71 -686 -451 -1243
  -1124 -1651 -814 -492 -1850 -661 -2995 -487 -892 135 -1894 510 -2507 937
  -222 155 -368 312 -290 312 27 0 207 61 284 96 206 94 432 292 569 497 115
  173 212 388 273 608 l24 87 43 5 c111 12 192 124 221 308 18 109 15 145 -15
  168 -33 26 -45 26 -76 1 -22 -16 -27 -33 -37 -112 -14 -108 -46 -194 -82 -221
  -21 -15 -35 -18 -68 -12 -39 6 -79 29 -290 167 -198 129 -343 318 -398 518
  -26 94 -23 298 5 402 78 287 220 482 392 539 14 5 70 7 125 5 85 -2 111 -8
  175 -34z"/>
  <path d="M6518 5416 c-175 -46 -338 -94 -363 -106 -117 -57 -139 -196 -47
  -297 36 -38 93 -48 225 -38 271 20 491 106 643 253 59 56 86 101 87 147 2 71
  -58 116 -163 121 -56 3 -111 -9 -382 -80z"/>
  <path d="M4408 5481 c-95 -31 -145 -104 -135 -199 8 -73 25 -89 162 -147 279
  -118 593 -173 835 -146 188 22 287 57 316 112 22 43 11 88 -29 126 -67 64
  -116 79 -554 169 -408 85 -538 103 -595 85z"/>
  <path d="M5935 2743 c-247 -74 -458 -141 -467 -150 -37 -33 -8 -114 40 -113
  39 1 913 268 932 285 36 32 15 96 -35 108 -11 3 -222 -56 -470 -130z"/>
  <path d="M6076 2532 c-172 -53 -222 -72 -234 -89 -19 -30 -9 -68 23 -89 24
  -16 35 -14 257 52 127 38 240 76 251 84 43 36 11 111 -47 109 -17 0 -130 -31
  -250 -67z"/>
  </g>
</svg>
