<svg
  width=""
  height=""
  viewBox="0 0 20 20"
  fill=""
  xmlns="http://www.w3.org/2000/svg"
  stroke=""
>
  <path
    d="M16.6423 4.54885C16.2605 4.16347 15.8072 3.85776 15.3083 3.64918C14.8094 3.44061 14.2746 3.33325 13.7346 3.33325C13.1945 3.33325 12.6598 3.44061 12.1608 3.64918C11.6619 3.85776 11.2086 4.16347 10.8268 4.54885L10.0345 5.34828L9.24212 4.54885C8.47094 3.77077 7.42498 3.33366 6.33436 3.33366C5.24374 3.33366 4.19779 3.77077 3.4266 4.54885C2.65542 5.32693 2.22217 6.38223 2.22217 7.4826C2.22217 8.58296 2.65542 9.63826 3.4266 10.4163L4.21895 11.2158L10.0345 17.0833L15.85 11.2158L16.6423 10.4163C17.0243 10.0311 17.3273 9.57378 17.534 9.0704C17.7408 8.56702 17.8472 8.02748 17.8472 7.4826C17.8472 6.93771 17.7408 6.39817 17.534 5.89479C17.3273 5.39141 17.0243 4.93405 16.6423 4.54885V4.54885Z"
    stroke-linecap="round"
    stroke-linejoin="round"
  />
</svg>