<svg
    width="136"
    height="21"
    viewBox="0 0 136 21"
    xmlns="http://www.w3.org/2000/svg"
  >
    <path
      d="M10.3329 15.1962H9.21727L7.02504 7.86579L5.62364 15.1962H4.38721L6.14746 6.125H7.52335L10.3329 15.1962Z"
      fill="white"
    />
    <path
      d="M12.0591 6.125H13.4401L15.1918 15.1962H13.9554L12.554 7.86579L10.3669 15.1962H9.24268L12.0591 6.125Z"
      fill="white"
    />
    <path
      d="M26.7094 11.0006H22.0306V14.2221H26.7094V15.1979H20.7993V6.125H26.7094V7.1025H22.0306V10.0214H26.7094V11.0006Z"
      fill="white"
    />
    <path
      d="M34.5496 6.125V7.1025C36.5666 7.1025 38.201 8.70049 38.201 10.6538C38.201 12.6207 36.5666 14.2204 34.5496 14.2204V15.1979C37.1245 15.1979 39.2044 13.1613 39.2044 10.6538C39.2044 8.15479 37.1245 6.125 34.5496 6.125Z"
      fill="white"
    />
    <path
      d="M34.5616 15.1962H32.2605V6.125H34.5616V7.1025H33.485V14.2204H34.5616V15.1962Z"
      fill="white"
    />
    <path
      d="M46.0263 15.1962H44.8V6.125H46.0263V15.1962Z"
      fill="white"
    />
    <path
      d="M55.5995 7.79099L52.7746 15.1962H51.511L55.0587 6.125H56.1403L59.6966 15.1962H58.4363L55.5995 7.79099Z"
      fill="white"
    />
    <path
      d="M72.3466 15.1962H71.1119L66.4281 8.20239V15.1962H65.1934V6.125H66.4281L71.1204 13.1443V6.125H72.3466V15.1962Z"
      fill="white"
    />
    <path
      d="M98.0853 11.0006H93.4015V14.2221H98.0853V15.1979H92.1787V6.125H98.0853V7.1025H93.4015V10.0214H98.0853V11.0006Z"
      fill="white"
    />
    <path
      d="M85.5444 12.3113C84.9372 13.4163 83.7722 14.1626 82.4117 14.1626C80.4388 14.1626 78.8384 12.6003 78.8384 10.6793C78.8384 8.75829 80.4371 7.1943 82.4117 7.1943C83.7722 7.1943 84.9389 7.94739 85.5444 9.04389H86.7519C86.0784 7.33879 84.393 6.125 82.41 6.125C79.8265 6.125 77.7397 8.16159 77.7397 10.681C77.7397 13.1953 79.8248 15.237 82.41 15.237C84.393 15.237 86.0784 14.0232 86.7519 12.313H85.5444V12.3113Z"
      fill="white"
    />
    <path
      d="M10.3329 15.1962H9.21727L7.02504 7.86579L5.62364 15.1962H4.38721L6.14746 6.125H7.52335L10.3329 15.1962Z"
      fill="#24252B"
    />
    <path
      d="M12.0591 6.125H13.4401L15.1918 15.1962H13.9554L12.554 7.86579L10.3669 15.1962H9.24268L12.0591 6.125Z"
      fill="#24252B"
    />
    <path
      d="M26.7094 11.0006H22.0306V14.2221H26.7094V15.1979H20.7993V6.125H26.7094V7.1025H22.0306V10.0214H26.7094V11.0006Z"
      fill="#24252B"
    />
    <path
      d="M34.5496 6.125V7.1025C36.5666 7.1025 38.201 8.70049 38.201 10.6538C38.201 12.6207 36.5666 14.2204 34.5496 14.2204V15.1979C37.1245 15.1979 39.2044 13.1613 39.2044 10.6538C39.2044 8.15479 37.1245 6.125 34.5496 6.125Z"
      fill="#24252B"
    />
    <path
      d="M34.5616 15.1962H32.2605V6.125H34.5616V7.1025H33.485V14.2204H34.5616V15.1962Z"
      fill="#24252B"
    />
    <path
      d="M46.0263 15.1962H44.8V6.125H46.0263V15.1962Z"
      fill="#24252B"
    />
    <path
      d="M55.5995 7.79099L52.7746 15.1962H51.511L55.0587 6.125H56.1403L59.6966 15.1962H58.4363L55.5995 7.79099Z"
      fill="#24252B"
    />
    <path
      d="M72.3466 15.1962H71.1119L66.4281 8.20239V15.1962H65.1934V6.125H66.4281L71.1204 13.1443V6.125H72.3466V15.1962Z"
      fill="#24252B"
    />
    <path
      d="M98.0853 11.0006H93.4015V14.2221H98.0853V15.1979H92.1787V6.125H98.0853V7.1025H93.4015V10.0214H98.0853V11.0006Z"
      fill="#24252B"
    />
    <path
      d="M85.5444 12.3113C84.9372 13.4163 83.7722 14.1626 82.4117 14.1626C80.4388 14.1626 78.8384 12.6003 78.8384 10.6793C78.8384 8.75829 80.4371 7.1943 82.4117 7.1943C83.7722 7.1943 84.9389 7.94739 85.5444 9.04389H86.7519C86.0784 7.33879 84.393 6.125 82.41 6.125C79.8265 6.125 77.7397 8.16159 77.7397 10.681C77.7397 13.1953 79.8248 15.237 82.41 15.237C84.393 15.237 86.0784 14.0232 86.7519 12.313H85.5444V12.3113Z"
      fill="#24252B"
    />
    <path
      d="M107.923 5.25V15.75H115.636V13.6758H110.306V5.25H107.923Z"
      fill="#24252B"
    />
    <path
      d="M123.921 15.75H126.58L122.441 5.25H119.966L115.828 15.75H118.29L119.036 13.7144H123.175L123.921 15.75ZM119.77 11.6788L121.106 8.01994L122.441 11.6788H119.77Z"
      fill="#24252B"
    />
    <path
      d="M127.16 15.75H132.189C134.586 15.75 136 14.5132 136 12.5678C136 11.55 135.28 10.5709 134.258 10.2488C134.992 9.97822 135.502 9.12791 135.502 8.38067C135.502 6.46104 134.167 5.25 131.796 5.25H127.16V15.75ZM129.544 9.50153V7.24693H131.691C132.595 7.24693 133.119 7.64632 133.119 8.38067C133.119 9.11503 132.595 9.50153 131.691 9.50153H129.544ZM129.544 13.7531V11.3825H132.084C133.027 11.3825 133.617 11.7948 133.617 12.5678C133.617 13.3408 133.027 13.7531 132.084 13.7531H129.544Z"
      fill="#24252B"
    />

  </svg>