<svg
    width="136"
    height="23"
    viewBox="0 0 136 23"
    xmlns="http://www.w3.org/2000/svg"
  >
    <path
      d="M40.2139 16.5503H38.9961L36.6032 8.52182L35.0735 16.5503H33.7239L35.6453 6.61523H37.1471L40.2139 16.5503Z"
      fill="white"
    />
    <path
      d="M42.0982 6.61523H43.6056L45.5177 16.5503H44.1681L42.6384 8.52182L40.251 16.5503H39.0239L42.0982 6.61523Z"
      fill="white"
    />
    <path
      d="M58.0895 11.9552H52.9825V15.4834H58.0895V16.5522H51.6384V6.61523H58.0895V7.68582H52.9825V10.8827H58.0895V11.9552Z"
      fill="white"
    />
    <path
      d="M66.6477 6.61523V7.68582C68.8494 7.68582 70.6335 9.43601 70.6335 11.5753C70.6335 13.7295 68.8494 15.4816 66.6477 15.4816V16.5522C69.4583 16.5522 71.7287 14.3216 71.7287 11.5753C71.7287 8.83834 69.4583 6.61523 66.6477 6.61523Z"
      fill="white"
    />
    <path
      d="M66.6607 16.5503H64.1489V6.61523H66.6607V7.68582H65.4856V15.4816H66.6607V16.5503Z"
      fill="white"
    />
    <path
      d="M79.1749 16.5503H77.8364V6.61523H79.1749V16.5503Z"
      fill="white"
    />
    <path
      d="M89.6247 8.43989L86.5412 16.5503H85.1619L89.0344 6.61523H90.2151L94.0969 16.5503H92.7212L89.6247 8.43989Z"
      fill="white"
    />
    <path
      d="M107.905 16.5503H106.557L101.444 8.89047V16.5503H100.097V6.61523H101.444L106.566 14.303V6.61523H107.905V16.5503V16.5503Z"
      fill="white"
    />
    <path
      d="M136 11.9552H130.888V15.4834H136V16.5522H129.553V6.61523H136V7.68582H130.888V10.8827H136V11.9552Z"
      fill="white"
    />
    <path
      d="M122.311 13.3907C121.648 14.6009 120.376 15.4183 118.891 15.4183C116.738 15.4183 114.991 13.7072 114.991 11.6033C114.991 9.49931 116.736 7.78637 118.891 7.78637C120.376 7.78637 121.65 8.61119 122.311 9.81211H123.629C122.894 7.94463 121.054 6.61523 118.889 6.61523C116.069 6.61523 113.792 8.84579 113.792 11.6051C113.792 14.3589 116.067 16.595 118.889 16.595C121.054 16.595 122.894 15.2656 123.629 13.3925H122.311V13.3907Z"
      fill="white"
    />
    <path
      d="M40.2139 16.5503H38.9961L36.6032 8.52182L35.0735 16.5503H33.7239L35.6453 6.61523H37.1471L40.2139 16.5503Z"
      fill="#24252B"
    />
    <path
      d="M42.0982 6.61523H43.6056L45.5177 16.5503H44.1681L42.6384 8.52182L40.251 16.5503H39.0239L42.0982 6.61523Z"
      fill="#24252B"
    />
    <path
      d="M58.0895 11.9552H52.9825V15.4834H58.0895V16.5522H51.6384V6.61523H58.0895V7.68582H52.9825V10.8827H58.0895V11.9552Z"
      fill="#24252B"
    />
    <path
      d="M66.6477 6.61523V7.68582C68.8494 7.68582 70.6335 9.43601 70.6335 11.5753C70.6335 13.7295 68.8494 15.4816 66.6477 15.4816V16.5522C69.4583 16.5522 71.7287 14.3216 71.7287 11.5753C71.7287 8.83834 69.4583 6.61523 66.6477 6.61523Z"
      fill="#24252B"
    />
    <path
      d="M66.6607 16.5503H64.1489V6.61523H66.6607V7.68582H65.4856V15.4816H66.6607V16.5503Z"
      fill="#24252B"
    />
    <path
      d="M79.1749 16.5503H77.8364V6.61523H79.1749V16.5503Z"
      fill="#24252B"
    />
    <path
      d="M89.6247 8.43989L86.5412 16.5503H85.1619L89.0344 6.61523H90.2151L94.0969 16.5503H92.7212L89.6247 8.43989Z"
      fill="#24252B"
    />
    <path
      d="M107.905 16.5503H106.557L101.444 8.89047V16.5503H100.097V6.61523H101.444L106.566 14.303V6.61523H107.905V16.5503V16.5503Z"
      fill="#24252B"
    />
    <path
      d="M136 11.9552H130.888V15.4834H136V16.5522H129.553V6.61523H136V7.68582H130.888V10.8827H136V11.9552Z"
      fill="#24252B"
    />
    <path
      d="M122.311 13.3907C121.648 14.6009 120.376 15.4183 118.891 15.4183C116.738 15.4183 114.991 13.7072 114.991 11.6033C114.991 9.49931 116.736 7.78637 118.891 7.78637C120.376 7.78637 121.65 8.61119 122.311 9.81211H123.629C122.894 7.94463 121.054 6.61523 118.889 6.61523C116.069 6.61523 113.792 8.84579 113.792 11.6051C113.792 14.3589 116.067 16.595 118.889 16.595C121.054 16.595 122.894 15.2656 123.629 13.3925H122.311V13.3907Z"
      fill="#24252B"
    />
    <path
      d="M9.86126 23H6.41016L14.5376 0L22.6688 23H19.2195L14.5376 9.76006L9.86126 23Z"
      fill="#38B094"
    />
    <path
      d="M3.4511 23H0L8.1293 0L16.2549 23H12.8056L8.1293 9.76006L3.4511 23Z"
      fill="white"
    />
    <path
      d="M16.2735 23H12.8242L20.9517 0L29.0791 23H25.6317L20.9517 9.76006L16.2735 23Z"
      fill="white"
    />
    <path
      d="M3.4511 23H0L8.1293 0L16.2549 23H12.8056L8.1293 9.76006L3.4511 23Z"
      fill="#24252B"
    />
    <path
      d="M16.2735 23H12.8242L20.9517 0L29.0791 23H25.6317L20.9517 9.76006L16.2735 23Z"
      fill="#24252B"
    />
    <path
      d="M14.5376 0L22.6688 23H19.2195L14.5376 9.76006V0Z"
      fill="#38B094"
    />
  </svg>