  <svg
    width=""
    height=""
    viewBox="0 0 16 16"
    fill=""
    xmlns="http://www.w3.org/2000/svg"
    stroke=""
  >
    <path
      d="M13.5 12.9999H7.20713L12.3533 7.85372L12.3536 7.85345L12.3539 7.85314L13.9999 6.20706C14.0928 6.1142 14.1665 6.00397 14.2168 5.88264C14.267 5.76131 14.2929 5.63127 14.2929 5.49994C14.2929 5.36862 14.267 5.23857 14.2168 5.11724C14.1665 4.99591 14.0929 4.88567 14 4.79281L11.2071 1.99984C11.0194 1.81263 10.7651 1.70751 10.5 1.70752C10.2348 1.70753 9.98055 1.81268 9.79285 1.9999L2.29285 9.49993C2.19574 9.59702 2.11974 9.71313 2.0696 9.84097C2.06445 9.85345 2.06012 9.86614 2.05603 9.87893C2.01915 9.98438 2.00021 10.0953 2 10.207V12.9999C2.0003 13.265 2.10576 13.5192 2.29323 13.7067C2.4807 13.8941 2.73488 13.9996 3 13.9999H13.5C13.6326 13.9999 13.7598 13.9472 13.8536 13.8535C13.9473 13.7597 14 13.6325 14 13.4999C14 13.3673 13.9473 13.2401 13.8536 13.1463C13.7598 13.0526 13.6326 12.9999 13.5 12.9999ZM10.5 2.70699L13.2928 5.4999L12 6.79275L9.20712 3.9999L10.5 2.70699Z"
    />
  </svg>