<svg
    width=""
    height=""
    viewBox="0 0 24 24"
    fill=""
    xmlns="http://www.w3.org/2000/svg"
    stroke=""
  >
    <path
      d="M17.0051 9.18231H14.3813L14.9711 6.10438V6.10425C15.0864 5.47332 14.8847 4.8259 14.4315 4.37213C13.9782 3.91826 13.3312 3.71573 12.7 3.83025C12.0689 3.94462 11.5341 4.36154 11.2691 4.9456L9.2813 9.18228H4.7998V19.4536H16.3565C16.8822 19.4596 17.3923 19.2753 17.7926 18.9347C18.193 18.594 18.4565 18.1199 18.5346 17.6001L19.1832 11.6001C19.2577 10.9809 19.0609 10.3597 18.6436 9.89632C18.2262 9.43277 17.6288 9.17244 17.0052 9.18221L17.0051 9.18231ZM8.40279 18.2536H5.99984V10.3823H8.40588L8.40279 18.2536ZM17.9946 11.4369V11.4711L17.3441 17.4502C17.3019 17.6796 17.1792 17.8865 16.9983 18.0337C16.8172 18.1809 16.5898 18.2589 16.3565 18.2536H9.60286V10.3823H10.0439L10.3673 9.69232L12.3599 5.44261C12.42 5.31055 12.5169 5.19859 12.6389 5.12011C12.761 5.04176 12.903 5.00011 13.0482 5.00037C13.2721 4.9989 13.4848 5.09854 13.6272 5.27158C13.7701 5.43886 13.8306 5.66144 13.7922 5.87813L13.203 8.95675L12.9294 10.3823H17.0053L17.0051 10.3824C17.3002 10.3799 17.5818 10.5052 17.7774 10.7262C17.9499 10.9203 18.0291 11.1798 17.9946 11.4371L17.9946 11.4369Z"
    />
  </svg>


  