<svg
    width=""
    height=""
    viewBox="0 0 20 20"
    fill=""
    xmlns="http://www.w3.org/2000/svg"
    stroke=""
  >
    <circle
      cx="9.99992"
      cy="10.0002"
      r="5.91667"
      stroke="#25282B"
      stroke-width="1.5"
    />
    <path
      d="M10 6.6665L10 10.8332"
      stroke="#25282B"
      stroke-width="1.5"
      stroke-linecap="round"
      stroke-linejoin="round"
    />
    <mask
      id="path-3-inside-1_1431_40594"
      fill="white"
    >
      <ellipse
        cx="10.0001"
        cy="13.3333"
        rx="0.833333"
        ry="0.833333"
      />
    </mask>
    <ellipse
      cx="10.0001"
      cy="13.3333"
      rx="0.833333"
      ry="0.833333"
      fill="#25282B"
    />
    <path
      d="M9.83342 13.3333C9.83342 13.2413 9.90803 13.1667 10.0001 13.1667V15.1667C11.0126 15.1667 11.8334 14.3459 11.8334 13.3333H9.83342ZM10.0001 13.1667C10.0921 13.1667 10.1667 13.2413 10.1667 13.3333H8.16675C8.16675 14.3459 8.98756 15.1667 10.0001 15.1667V13.1667ZM10.1667 13.3333C10.1667 13.4254 10.0921 13.5 10.0001 13.5V11.5C8.98756 11.5 8.16675 12.3208 8.16675 13.3333H10.1667ZM10.0001 13.5C9.90803 13.5 9.83342 13.4254 9.83342 13.3333H11.8334C11.8334 12.3208 11.0126 11.5 10.0001 11.5V13.5Z"
      fill="#25282B"
      mask="url(#path-3-inside-1_1431_40594)"
    />
  </svg>