<svg
    width=""
    height=""
    viewBox="0 0 24 24"
    fill="props.color"
    xmlns="http://www.w3.org/2000/svg"
    stroke=""
  >
    <path
      d="M19.9564 6.92783C19.8593 6.54976 19.6613 6.20336 19.3826 5.92361C19.104 5.64386 18.7544 5.44068 18.3693 5.33458C16.9621 5 11.3333 5 11.3333 5C11.3333 5 5.70445 5 4.29725 5.36645C3.91211 5.47254 3.56255 5.67573 3.28386 5.95547C3.00518 6.23522 2.80725 6.58162 2.71006 6.95969C2.45253 8.35024 2.32655 9.76087 2.33372 11.1738C2.32454 12.5974 2.45052 14.0188 2.71006 15.4198C2.81721 15.7862 3.01957 16.1194 3.29761 16.3873C3.57564 16.6552 3.91994 16.8488 4.29725 16.9493C5.70445 17.3158 11.3333 17.3158 11.3333 17.3158C11.3333 17.3158 16.9621 17.3158 18.3693 16.9493C18.7544 16.8432 19.104 16.6401 19.3826 16.3603C19.6613 16.0806 19.8593 15.7342 19.9564 15.3561C20.212 13.976 20.338 12.5761 20.3328 11.1738C20.342 9.75023 20.216 8.32885 19.9564 6.92783V6.92783Z"
      fill="#FF0000"
    />
    <path
      d="M9.9122 14.4738L14.649 11.6317L9.9122 8.78955V14.4738Z"
      fill="white"
    />
  </svg>